<?xml version="1.0" encoding="UTF-8" standalone="no"?>
<svg
   xmlns:dc="http://purl.org/dc/elements/1.1/"
   xmlns:cc="http://creativecommons.org/ns#"
   xmlns:rdf="http://www.w3.org/1999/02/22-rdf-syntax-ns#"
   xmlns:svg="http://www.w3.org/2000/svg"
   xmlns="http://www.w3.org/2000/svg"
   viewBox="0 0 500 500"
   height="500"
   width="500"
   xml:space="preserve"
   id="svg2"
   version="1.1"><metadata
     id="metadata8"><rdf:RDF><cc:Work
         rdf:about=""><dc:format>image/svg+xml</dc:format><dc:type
           rdf:resource="http://purl.org/dc/dcmitype/StillImage" /></cc:Work></rdf:RDF></metadata><defs
     id="defs6"><clipPath
       id="clipPath14"
       clipPathUnits="userSpaceOnUse"><path
         id="path12"
         d="M 0,8.039989 H 375 V 383.03998 H 0 Z" /></clipPath><clipPath
       id="clipPath24"
       clipPathUnits="userSpaceOnUse"><path
         style="clip-rule:evenodd"
         id="path22"
         d="M 0,0 H 1562.5 V 1562.5 H 0 Z" /></clipPath><clipPath
       id="clipPath36"
       clipPathUnits="userSpaceOnUse"><path
         style="clip-rule:evenodd"
         id="path34"
         d="M 0,0 H 1562.5 V 1562.5 H 0 Z" /></clipPath><clipPath
       id="clipPath48"
       clipPathUnits="userSpaceOnUse"><path
         style="clip-rule:evenodd"
         id="path46"
         d="M 0,0 H 1562.5 V 1562.5 H 0 Z" /></clipPath><clipPath
       id="clipPath62"
       clipPathUnits="userSpaceOnUse"><path
         style="clip-rule:evenodd"
         id="path60"
         d="M 243.68665,644.48151 H 1353.0617 v 203.125 H 243.68665 Z" /></clipPath><clipPath
       id="clipPath74"
       clipPathUnits="userSpaceOnUse"><path
         style="clip-rule:evenodd"
         id="path72"
         d="m 470.54892,440.50919 h 62.50003 v 62.5 h -62.50003 z" /></clipPath><clipPath
       id="clipPath86"
       clipPathUnits="userSpaceOnUse"><path
         style="clip-rule:evenodd"
         id="path84"
         d="M 0,0 H 1562.5 V 1562.5 H 0 Z" /></clipPath><clipPath
       id="clipPath100"
       clipPathUnits="userSpaceOnUse"><path
         style="clip-rule:evenodd"
         id="path98"
         d="M 406.37354,644.48151 H 1176.4307 V 857.6377 H 406.37354 Z" /></clipPath><clipPath
       id="clipPath112"
       clipPathUnits="userSpaceOnUse"><path
         style="clip-rule:evenodd"
         id="path110"
         d="M 0,0 H 1562.5 V 1562.5 H 0 Z" /></clipPath></defs><g
     clip-path="url(#clipPath14)"
     transform="matrix(1.3333333,0,0,-1.3333333,0,510.71997)"
     id="g10"><g
       transform="matrix(0.31999998,0,0,0.31999998,0,9.434666e-6)"
       id="g16"><g
         id="g18"><g
           clip-path="url(#clipPath24)"
           id="g20"><g
             transform="scale(3.125)"
             id="g26"><path
               id="path28"
               style="fill:#ffffff;fill-opacity:1;fill-rule:nonzero;stroke:none"
               d="M 0,0 H 500 V 500 H 0 Z" /></g></g></g><g
         id="g30"><g
           clip-path="url(#clipPath36)"
           id="g32"><g
             transform="scale(3.125)"
             id="g38"><path
               id="path40"
               style="fill:#ffffff;fill-opacity:1;fill-rule:nonzero;stroke:none"
               d="M 0,0 H 500 V 500 H 0 Z" /></g></g></g><g
         id="g42"><g
           clip-path="url(#clipPath48)"
           id="g44"><g
             transform="matrix(3.125,0,0,3.125,428.41931,-6.1938944)"
             id="g50"><text
               id="text54"
               style="font-variant:normal;font-weight:normal;font-size:325.6000061px;font-family:PlayfairDisplay;-inkscape-font-specification:PlayfairDisplay-Regular;writing-mode:lr-tb;fill:#693a76;fill-opacity:1;fill-rule:nonzero;stroke:none"
               transform="translate(0,362)"><tspan
                 id="tspan52"
                 y="0"
                 x="0">R</tspan></text>
</g></g></g><g
         id="g56"><g
           clip-path="url(#clipPath62)"
           id="g58"><g
             transform="matrix(2.2602167,0,0,2.2602167,246.37134,648.09784)"
             id="g64"><path
               id="path66"
               style="fill:#ffffff;fill-opacity:1;fill-rule:nonzero;stroke:none"
               d="m 486.39999,65.099998 c -1.79998,13.699997 -10.70001,18.099999 -23.5,18 -0.20001,0 -0.39999,0 -0.6,0 C 428.79999,87.599998 391,83.699997 357,84 319.39999,84.300003 281.70001,84.400002 244.10001,84.400002 170.5,84.400002 96.900009,84 23.300003,84.599998 c -18.5000028,0.1 -22.90000299,-18 -22.50000299,-36.199996 C 0.69999999,47.800003 0.60000002,47.200001 0.5,46.600002 0.4,45.300003 0.30000001,44.100002 0.4,42.800003 0.09999999,41.700005 0,40.600002 0.09999999,39.200005 1,24.9 1.9000001,8.6999998 14.3,2.8 16,1.4 18.299999,0.5 21.299999,0.79999995 c 0.200001,0 0.299999,0 0.5,0 C 22.4,0.69999993 22.9,0.59999996 23.5,0.59999996 c 76.7,0 153.60001,0.99999994 230.5,1.20000004 35.89999,0.1 71.70001,0 107.60001,-0.3 32.79998,-0.2000001 66.5,-3.0999999 99.1,-0.4 14.20001,1.2000002 23.10001,3.8000001 24.9,19.200001 1.6,14.600001 2.69998,30.299997 0.79998,44.799997 z" /></g></g></g><g
         id="g68"><g
           clip-path="url(#clipPath74)"
           id="g70"><g
             transform="matrix(0.96375263,0,0,0.96375263,470.54892,440.50919)"
             id="g76"><path
               id="path78"
               style="fill:#683974;fill-opacity:1;fill-rule:nonzero;stroke:none"
               d="M 32.400002,64.800003 C 14.5,64.800003 0,50.200001 0,32.400002 0,14.600002 14.5,0 32.400002,0 c 17.900001,0 32.400001,14.5 32.400001,32.400002 0,17.900001 -14.600002,32.400001 -32.400001,32.400001 z M 32.400002,2 C 15.6,2 2,15.6 2,32.400002 c 0,16.799999 13.6,30.400001 30.400002,30.400001 16.799999,0 30.400001,-13.599998 30.400001,-30.400001 C 62.799999,15.6 49.099998,2 32.400002,2 Z" /></g></g></g><g
         id="g80"><g
           clip-path="url(#clipPath86)"
           id="g82"><g
             transform="matrix(2.3670995,0,0,2.3670995,439.31223,444.52429)"
             id="g88"><text
               id="text92"
               style="font-variant:normal;font-weight:bold;font-size:16.47999954px;font-family:CanvaSans;-inkscape-font-specification:CanvaSans-Bold;writing-mode:lr-tb;fill:#683974;fill-opacity:1;fill-rule:nonzero;stroke:none"
               transform="translate(20.890625,18)"><tspan
                 id="tspan90"
                 y="0"
                 x="0">R</tspan></text>
</g></g></g><g
         id="g94"><g
           clip-path="url(#clipPath100)"
           id="g96"><g
             transform="matrix(0.83264142,0,0,0.83264142,406.37354,644.48151)"
             id="g102"><path
               id="path104"
               style="fill:#ffffff;fill-opacity:1;fill-rule:nonzero;stroke:none"
               d="M 0,0 H 925 V 256 H 0 Z" /></g></g></g><g
         id="g106"><g
           clip-path="url(#clipPath112)"
           id="g108"><g
             transform="matrix(3.4427238,0,0,3.4427238,346.82742,667.25262)"
             id="g114"><text
               id="text118"
               style="font-variant:normal;font-weight:bold;font-size:36px;font-family:Garamond;-inkscape-font-specification:Garamond-Bold;writing-mode:lr-tb;fill:#693a76;fill-opacity:1;fill-rule:nonzero;stroke:none"
               transform="translate(30.125,35)"><tspan
                 id="tspan116"
                 y="0"
                 x="0 25.119141 48.744141 70.875 93.005859 116.63086 141.75 167.25586">RAPPAREL</tspan></text>
</g></g></g></g></g></svg>