<?xml version="1.0" encoding="UTF-8"?>
<svg version="1.1" xmlns="http://www.w3.org/2000/svg" width="405" height="363">
<path d="M0 0 C133.65 0 267.3 0 405 0 C405 119.79 405 239.58 405 363 C271.35 363 137.7 363 0 363 C0 243.21 0 123.42 0 0 Z " fill="#FEFEFE" transform="translate(0,0)"/>
<path d="M0 0 C13.04007225 -0.04653381 26.08012443 -0.08197552 39.1202631 -0.10362434 C45.17664099 -0.11401961 51.23296167 -0.12810028 57.28930664 -0.15087891 C63.14430229 -0.17276006 68.99924324 -0.18460057 74.85427666 -0.18975449 C77.07754819 -0.19342301 79.30081705 -0.20058592 81.52406502 -0.21146011 C111.94257453 -0.35419628 111.94257453 -0.35419628 126.1875 4.6875 C126.94232666 4.95022705 127.69715332 5.2129541 128.47485352 5.48364258 C144.67292557 11.34450314 156.30786194 21.03722288 163.66015625 36.640625 C166.34481766 43.37184602 167.34130286 49.14058692 167.3125 56.3125 C167.32861328 57.10333984 167.34472656 57.89417969 167.36132812 58.70898438 C167.36671155 65.3359834 166.03383303 69.22055655 164 76 C153.77 76 143.54 76 133 76 C133.3125 60.9375 133.3125 60.9375 133.45043945 56.28881836 C133.59484596 41.69630796 130.06685493 29.09289976 120 18 C109.05169821 7.52446579 92.91151361 6.43857455 78.59375 6.75390625 C71.70229206 7.03729067 65.42153529 7.51940288 60.4375 12.625 C57.04699662 20.58531229 56.67849419 28.46865967 56.5859375 37.03515625 C56.56657135 38.15442001 56.5472052 39.27368378 56.5272522 40.42686462 C56.46787777 43.97200095 56.42124029 47.5171705 56.375 51.0625 C56.33678143 53.47852912 56.29772748 55.89454518 56.2578125 58.31054688 C56.16065224 64.20696002 56.08074831 70.10324832 56 76 C46.1 76 36.2 76 26 76 C25.95101562 72.35066406 25.90203125 68.70132813 25.8515625 64.94140625 C25.79747285 61.38676028 25.7401967 57.83217884 25.68261719 54.27758789 C25.6444564 51.8170253 25.60958157 49.35640938 25.578125 46.89575195 C25.5321937 43.34827683 25.47424573 39.80116481 25.4140625 36.25390625 C25.40251129 35.1629213 25.39096008 34.07193634 25.37905884 32.94789124 C25.23973799 25.65289481 25.10082619 18.40478727 21.1875 12.0625 C17.00026395 8.11453458 12.25858108 7.6039265 6.6875 6.875 C5.43324219 6.70742187 4.17898437 6.53984375 2.88671875 6.3671875 C1.93410156 6.24601562 0.98148437 6.12484375 0 6 C0 4.02 0 2.04 0 0 Z " fill="#6A3C77" transform="translate(108,68)"/>
<path d="M0 0 C9.9 0 19.8 0 30 0 C30.04898438 4.15464844 30.09796875 8.30929688 30.1484375 12.58984375 C30.19304266 15.9235987 30.23953438 19.2573156 30.28729248 22.59102631 C30.33702635 26.09848748 30.3835141 29.60591983 30.421875 33.11352539 C30.46614689 37.1474825 30.52569977 41.18109322 30.5859375 45.21484375 C30.59748871 46.45894516 30.60903992 47.70304657 30.62094116 48.98484802 C30.70850285 61.72732936 30.70850285 61.72732936 36 73 C40.26461387 76.18648115 44.17324982 76.68689386 49.3125 77.1875 C50.05306641 77.26935547 50.79363281 77.35121094 51.55664062 77.43554688 C53.36994923 77.63442588 55.18484969 77.81869827 57 78 C57 80.31 57 82.62 57 85 C29.61 85 2.22 85 -26 85 C-26 82.69 -26 80.38 -26 78 C-25.29875 77.96261719 -24.5975 77.92523438 -23.875 77.88671875 C-16.68876516 77.38875954 -10.6390212 76.58562032 -4.625 72.3125 C0.30252187 65.30025734 -0.65772109 55.82743768 -0.5859375 47.65625 C-0.56719718 46.27761717 -0.5476217 44.89899546 -0.5272522 43.52038574 C-0.47622694 39.91693726 -0.43644425 36.31345171 -0.39910889 32.70983887 C-0.35888203 29.02261444 -0.30797854 25.33553789 -0.2578125 21.6484375 C-0.16040749 14.43234981 -0.08065357 7.216372 0 0 Z " fill="#693B76" transform="translate(134,213)"/>
<path d="M0 0 C9.57 0 19.14 0 29 0 C34.72748442 14.89145949 34.72748442 14.89145949 36.2109375 21.84375 C36.56855319 23.42664321 36.92638964 25.00948655 37.28442383 26.59228516 C37.46244537 27.39531067 37.64046692 28.19833618 37.82388306 29.0256958 C40.41726383 40.66898313 43.06149963 52.29104203 46.8125 63.625 C47.07788574 64.44548828 47.34327148 65.26597656 47.61669922 66.11132812 C49.05384654 70.25045674 50.37022698 73.42724879 54 76 C58.37478284 76.97142958 62.95741974 76.89386659 67.09765625 75.08203125 C71.10882867 72.35796031 74.0657213 68.82345406 77 65 C78.65 65.99 80.3 66.98 82 68 C78.55951327 75.8821733 71.31001476 82.6681394 64 87 C53.88781016 90.52604378 41.07853058 91.07256543 31.25 86.5 C20.05737618 79.75013076 15.56143553 69.48143776 12.24981689 57.22311401 C10.40818918 49.74976756 8.83221316 42.21911853 7.25 34.6875 C6.76551517 32.43138427 6.27984544 30.17552265 5.79296875 27.91992188 C3.79411202 18.62539182 1.86456198 9.32280988 0 0 Z " fill="#6A3C77" transform="translate(227,213)"/>
<path d="M0 0 C2.39652528 -0.08139142 4.79025436 -0.14067009 7.1875 -0.1875 C7.86103516 -0.21263672 8.53457031 -0.23777344 9.22851562 -0.26367188 C13.72209247 -0.32943154 16.41107248 0.2902613 20 3 C22 5 22 5 22.3125 7.4375 C22 10 22 10 20.625 11.8125 C19 13 19 13 17 13 C18.06553496 14.84373465 19.15303177 16.67479236 20.25 18.5 C20.85328125 19.5209375 21.4565625 20.541875 22.078125 21.59375 C23.02945313 22.78484375 23.02945313 22.78484375 24 24 C25.32 24 26.64 24 28 24 C30.97 16.08 33.94 8.16 37 0 C41 1 41 1 42.18847656 2.90185547 C42.50268555 3.71541504 42.81689453 4.52897461 43.140625 5.3671875 C43.48867187 6.25277344 43.83671875 7.13835937 44.1953125 8.05078125 C44.71738281 9.44876953 44.71738281 9.44876953 45.25 10.875 C45.61351562 11.79925781 45.97703125 12.72351563 46.3515625 13.67578125 C49 20.53583177 49 20.53583177 49 24 C51.64 24 54.28 24 57 24 C56.9193749 20.54069307 56.80651536 17.08318225 56.6875 13.625 C56.65366211 12.14773437 56.65366211 12.14773437 56.61914062 10.640625 C56.58369141 9.69960937 56.54824219 8.75859375 56.51171875 7.7890625 C56.48553467 6.91975098 56.45935059 6.05043945 56.43237305 5.15478516 C56.18654782 2.61399973 56.18654782 2.61399973 53 1 C55.91765891 0.89193856 58.83131125 0.81267123 61.75 0.75 C62.9875 0.69972656 62.9875 0.69972656 64.25 0.6484375 C70.37263845 0.54968527 70.37263845 0.54968527 73.546875 2.828125 C75.53179475 5.79483301 75.5833135 7.50011898 75 11 C73.4375 13.375 73.4375 13.375 71 15 C67.25 15.25 67.25 15.25 64 15 C64 14.34 64 13.68 64 13 C65.32 12.34 66.64 11.68 68 11 C68 9.02 68 7.04 68 5 C66.02 4.34 64.04 3.68 62 3 C62 10.26 62 17.52 62 25 C63.32 25.33 64.64 25.66 66 26 C57.42 26 48.84 26 40 26 C40.33 25.34 40.66 24.68 41 24 C41.66 24 42.32 24 43 24 C42.34 22.02 41.68 20.04 41 18 C38.36 17.67 35.72 17.34 33 17 C32.67 19.31 32.34 21.62 32 24 C32.99 24.33 33.98 24.66 35 25 C35 25.33 35 25.66 35 26 C29.06 26 23.12 26 17 26 C12 16.25 12 16.25 12 14 C10.68 14 9.36 14 8 14 C8 17.3 8 20.6 8 24 C9.32 24.66 10.64 25.32 12 26 C8.04 26 4.08 26 0 26 C0.99 25.67 1.98 25.34 3 25 C3 17.41 3 9.82 3 2 C2.01 2 1.02 2 0 2 C0 1.34 0 0.68 0 0 Z " fill="#764A84" transform="translate(103,164)"/>
<path d="M0 0 C2.91722548 -0.08103404 5.83219516 -0.14051081 8.75 -0.1875 C9.575 -0.21263672 10.4 -0.23777344 11.25 -0.26367188 C17.34996306 -0.33746175 17.34996306 -0.33746175 20.55078125 1.32421875 C22 3 22 3 22.4375 6 C22 9 22 9 20.625 10.875 C19 12 19 12 17 12 C17.98856594 13.85093198 19.01720728 15.68050146 20.0625 17.5 C20.63097656 18.5209375 21.19945312 19.541875 21.78515625 20.59375 C22.88150391 21.78484375 22.88150391 21.78484375 24 23 C26.31 23 28.62 23 31 23 C31 15.74 31 8.48 31 1 C29.68 0.67 28.36 0.34 27 0 C34.92 0 42.84 0 51 0 C51 1.98 51 3.96 51 6 C50.34 6 49.68 6 49 6 C48.505 4.02 48.505 4.02 48 2 C44.37 2 40.74 2 37 2 C37 4.64 37 7.28 37 10 C39.64 10 42.28 10 45 10 C45 8.68 45 7.36 45 6 C45.66 6 46.32 6 47 6 C47 9.63 47 13.26 47 17 C46.34 17 45.68 17 45 17 C45 15.68 45 14.36 45 13 C42.36 13 39.72 13 37 13 C37 16.3 37 19.6 37 23 C44.01866795 23.05873613 44.01866795 23.05873613 49.5 19.4375 C49.995 18.633125 50.49 17.82875 51 17 C51.66 17 52.32 17 53 17 C52.67 19.64 52.34 22.28 52 25 C40.78 25 29.56 25 18 25 C16.02 21.37 14.04 17.74 12 14 C11.01 13.67 10.02 13.34 9 13 C9 16.3 9 19.6 9 23 C10.32 23.33 11.64 23.66 13 24 C13 24.33 13 24.66 13 25 C8.71 25 4.42 25 0 25 C0.99 24.67 1.98 24.34 3 24 C3 16.41 3 8.82 3 1 C2.01 0.67 1.02 0.34 0 0 Z " fill="#73437D" transform="translate(231,165)"/>
<path d="M0 0 C2.39652528 -0.08139142 4.79025436 -0.14067009 7.1875 -0.1875 C7.86103516 -0.21263672 8.53457031 -0.23777344 9.22851562 -0.26367188 C13.72209247 -0.32943154 16.41107248 0.2902613 20 3 C22 5 22 5 22.3125 7.4375 C22 10 22 10 20.625 11.8125 C19 13 19 13 17 13 C18.07101186 14.79905924 19.15729915 16.58903096 20.25 18.375 C20.85328125 19.37273437 21.4565625 20.37046875 22.078125 21.3984375 C23.96071625 24.35842732 23.96071625 24.35842732 28 26 C24.37 26 20.74 26 17 26 C12 16.25 12 16.25 12 14 C10.68 14 9.36 14 8 14 C8 17.3 8 20.6 8 24 C9.32 24.66 10.64 25.32 12 26 C8.04 26 4.08 26 0 26 C0.99 25.67 1.98 25.34 3 25 C3 17.41 3 9.82 3 2 C2.01 2 1.02 2 0 2 C0 1.34 0 0.68 0 0 Z " fill="#7C4D84" transform="translate(103,164)"/>
<path d="M0 0 C2.43910086 1.82932565 3.48896101 3.53821423 4.75 6.3125 C5.1930062 9.85654961 4.98046098 11.80548585 3.5 15.0625 C0.71531986 18.64280304 -1.15071765 19.17000044 -5.625 19.75 C-10.33852136 19.18112673 -12.10488434 17.83203419 -15.25 14.3125 C-16.44389536 10.37966823 -16.69799464 8.34996128 -15.0625 4.5625 C-10.76703798 -0.76979768 -6.80225436 -2.07846661 0 0 Z " fill="#E8E3EB" transform="translate(123.25,79.6875)"/>
<path d="M0 0 C0.99 0 1.98 0 3 0 C3.29245605 0.71655762 3.58491211 1.43311523 3.88623047 2.17138672 C5.21063973 5.40807273 6.54271512 8.64154826 7.875 11.875 C8.33519531 13.00292969 8.79539063 14.13085938 9.26953125 15.29296875 C9.71425781 16.36933594 10.15898437 17.44570312 10.6171875 18.5546875 C11.02565918 19.54968262 11.43413086 20.54467773 11.85498047 21.56982422 C12.8843278 24.10984342 12.8843278 24.10984342 15 26 C10.71 26 6.42 26 2 26 C2.99 25.01 3.98 24.02 5 23 C4.76716851 19.85078091 4.76716851 19.85078091 4 17 C0.04 17.495 0.04 17.495 -4 18 C-4.33 19.98 -4.66 21.96 -5 24 C-4.01 24.66 -3.02 25.32 -2 26 C-5.3 26 -8.6 26 -12 26 C-11.01 25.01 -10.02 24.02 -9 23 C-7.88376964 20.62226105 -7.88376964 20.62226105 -6.9921875 17.9296875 C-6.64542969 16.95128906 -6.29867187 15.97289062 -5.94140625 14.96484375 C-5.58949219 13.94519531 -5.23757812 12.92554688 -4.875 11.875 C-4.16638482 9.85074804 -3.455567 7.82726534 -2.7421875 5.8046875 C-2.4313623 4.90733887 -2.12053711 4.00999023 -1.80029297 3.08544922 C-1 1 -1 1 0 0 Z " fill="#754883" transform="translate(215,164)"/>
<path d="M0 0 C2.91722548 -0.08103404 5.83219516 -0.14051081 8.75 -0.1875 C9.575 -0.21263672 10.4 -0.23777344 11.25 -0.26367188 C17.33657598 -0.33729981 17.33657598 -0.33729981 20.55078125 1.296875 C22 3 22 3 22.4375 6.4375 C22 10 22 10 21 12.4375 C17.81039012 14.92938272 14.96543085 14.26002825 11 14 C11 13.34 11 12.68 11 12 C12.32 11.34 13.64 10.68 15 10 C15 7.69 15 5.38 15 3 C12.03 2.505 12.03 2.505 9 2 C9 8.93 9 15.86 9 23 C10.32 23 11.64 23 13 23 C13 23.66 13 24.32 13 25 C9.04 25 5.08 25 1 25 C1.33 24.34 1.66 23.68 2 23 C2.66 23 3.32 23 4 23 C3.9193749 19.54069307 3.80651536 16.08318225 3.6875 12.625 C3.66494141 11.64015625 3.64238281 10.6553125 3.61914062 9.640625 C3.58369141 8.69960937 3.54824219 7.75859375 3.51171875 6.7890625 C3.48553467 5.91975098 3.45935059 5.05043945 3.43237305 4.15478516 C3.18654782 1.61399973 3.18654782 1.61399973 0 0 Z " fill="#73427C" transform="translate(180,165)"/>
<path d="M0 0 C2.91765891 -0.10806144 5.83131125 -0.18732877 8.75 -0.25 C9.9875 -0.30027344 9.9875 -0.30027344 11.25 -0.3515625 C17.37263845 -0.45031473 17.37263845 -0.45031473 20.546875 1.828125 C22.53179475 4.79483301 22.5833135 6.50011898 22 10 C20.4375 12.375 20.4375 12.375 18 14 C14.25 14.25 14.25 14.25 11 14 C11 13.34 11 12.68 11 12 C12.32 11.34 13.64 10.68 15 10 C15 8.02 15 6.04 15 4 C13.02 3.34 11.04 2.68 9 2 C9 9.26 9 16.52 9 24 C10.32 24.33 11.64 24.66 13 25 C9.04 25 5.08 25 1 25 C1.33 24.34 1.66 23.68 2 23 C2.66 23 3.32 23 4 23 C3.9193749 19.54069307 3.80651536 16.08318225 3.6875 12.625 C3.66494141 11.64015625 3.64238281 10.6553125 3.61914062 9.640625 C3.58369141 8.69960937 3.54824219 7.75859375 3.51171875 6.7890625 C3.48553467 5.91975098 3.45935059 5.05043945 3.43237305 4.15478516 C3.18654782 1.61399973 3.18654782 1.61399973 0 0 Z " fill="#6B3C7D" transform="translate(156,165)"/>
<path d="M0 0 C4.62 0 9.24 0 14 0 C16.57692308 5.15384615 16.57692308 5.15384615 16 9 C14.1875 11.3125 14.1875 11.3125 12 13 C11.01 13 10.02 13 9 13 C9 16.3 9 19.6 9 23 C10.32 23.33 11.64 23.66 13 24 C13 24.33 13 24.66 13 25 C8.71 25 4.42 25 0 25 C0.99 24.67 1.98 24.34 3 24 C3 16.41 3 8.82 3 1 C2.01 0.67 1.02 0.34 0 0 Z " fill="#7A4E83" transform="translate(231,165)"/>
<path d="M0 0 C3.63 0 7.26 0 11 0 C10.01 0.495 10.01 0.495 9 1 C9 8.26 9 15.52 9 23 C12.3 22.34 15.6 21.68 19 21 C19.66 20.01 20.32 19.02 21 18 C21.66 18 22.32 18 23 18 C23 20.31 23 22.62 23 25 C15.08 25 7.16 25 -1 25 C-1 24.34 -1 23.68 -1 23 C0.32 23 1.64 23 3 23 C3 15.74 3 8.48 3 1 C2.01 0.67 1.02 0.34 0 0 Z " fill="#754A86" transform="translate(287,165)"/>
<path d="M0 0 C5.75 0.75 5.75 0.75 8 3 C8.55743243 8.23986486 8.55743243 8.23986486 6.625 10.875 C5 12 5 12 3 12 C4.09646058 13.79639296 5.20245148 15.58697154 6.3125 17.375 C6.92738281 18.37273437 7.54226562 19.37046875 8.17578125 20.3984375 C9.90437775 23.19826812 9.90437775 23.19826812 13 25 C10.03 25 7.06 25 4 25 C2.99491199 23.21118264 1.99607264 21.41885304 1 19.625 C0.1646875 18.12839844 0.1646875 18.12839844 -0.6875 16.6015625 C-2 14 -2 14 -2 12 C-2.99 11.67 -3.98 11.34 -5 11 C-3.02 10.34 -1.04 9.68 1 9 C1.08886184 5.80097361 0.91058531 3.07322544 0 0 Z " fill="#72447F" transform="translate(245,165)"/>
<path d="M0 0 C3.3 0 6.6 0 10 0 C9.67 0.66 9.34 1.32 9 2 C7.35 1.67 5.7 1.34 4 1 C4 4.63 4 8.26 4 12 C5.32 12.33 6.64 12.66 8 13 C6.68 13 5.36 13 4 13 C4 16.3 4 19.6 4 23 C5.32 23.66 6.64 24.32 8 25 C4.04 25 0.08 25 -4 25 C-3.01 24.34 -2.02 23.68 -1 23 C-0.49095616 20.5842887 -0.49095616 20.5842887 -0.48828125 17.7734375 C-0.45283203 16.7421875 -0.41738281 15.7109375 -0.38085938 14.6484375 C-0.35830078 13.56820312 -0.33574219 12.48796875 -0.3125 11.375 C-0.27833984 10.28703125 -0.24417969 9.1990625 -0.20898438 8.078125 C-0.12632479 5.38578433 -0.06149158 2.69290729 0 0 Z " fill="#693A76" transform="translate(107,165)"/>
<path d="M0 0 C2.32749345 3.49124017 2.50299316 4.89222251 2 9 C0.4375 11.375 0.4375 11.375 -2 13 C-5.75 13.25 -5.75 13.25 -9 13 C-9 12.34 -9 11.68 -9 11 C-7.68 10.34 -6.36 9.68 -5 9 C-5 7.02 -5 5.04 -5 3 C-6.98 2.34 -8.96 1.68 -11 1 C-11 0.67 -11 0.34 -11 0 C-7.02990455 -1.05090762 -3.98145507 -1.06172135 0 0 Z " fill="#734782" transform="translate(176,166)"/>
<path d="M0 0 C1.5 1.25 1.5 1.25 3 3 C3 4.32 3 5.64 3 7 C3.66 7.66 4.32 8.32 5 9 C2.36 9.33 -0.28 9.66 -3 10 C-3.33 11.98 -3.66 13.96 -4 16 C-3.01 16.66 -2.02 17.32 -1 18 C-4.3 18 -7.6 18 -11 18 C-10.01 17.01 -9.02 16.02 -8 15 C-6.84295331 12.00155583 -5.84418643 8.98749937 -4.89453125 5.91796875 C-4.34529773 4.24927837 -3.67949734 2.62002111 -3 1 C-2.01 0.67 -1.02 0.34 0 0 Z " fill="#8D5C8B" transform="translate(214,172)"/>
<path d="M0 0 C1.65 0 3.3 0 5 0 C7 2 7 2 7.25 5 C7 8 7 8 5 10 C4.01 10 3.02 10 2 10 C1.67 13.63 1.34 17.26 1 21 C1.99 21.33 2.98 21.66 4 22 C2.68 22 1.36 22 0 22 C0 14.74 0 7.48 0 0 Z " fill="#EBF1F2" transform="translate(165,167)"/>
<path d="M0 0 C1.98 0 3.96 0 6 0 C7 1 7 1 7.1875 4.4375 C7 8 7 8 5 10 C4.01 10 3.02 10 2 10 C1.67 13.63 1.34 17.26 1 21 C0.67 21 0.34 21 0 21 C0 14.07 0 7.14 0 0 Z " fill="#E3E9F6" transform="translate(189,167)"/>
<path d="M0 0 C5 0 5 0 6.8125 1.1875 C8.40199375 3.6135694 8.36487512 5.15397406 8 8 C6 10 6 10 2.875 10.125 C1.451875 10.063125 1.451875 10.063125 0 10 C0 6.7 0 3.4 0 0 Z " fill="#E7E2EB" transform="translate(111,166)"/>
<path d="M0 0 C3.63 0 7.26 0 11 0 C11 0.33 11 0.66 11 1 C7.7 1 4.4 1 1 1 C1 3.64 1 6.28 1 9 C3.64 9 6.28 9 9 9 C9 7.68 9 6.36 9 5 C9.66 5 10.32 5 11 5 C11 8.63 11 12.26 11 16 C10.34 16 9.68 16 9 16 C9 14.68 9 13.36 9 12 C6.36 12 3.72 12 1 12 C-0.82089479 8.35821043 -0.05121113 3.99446852 0 0 Z " fill="#957BAE" transform="translate(267,166)"/>
<path d="M0 0 C2.375 -0.125 2.375 -0.125 5 0 C7 2 7 2 7.25 4.5 C7 7 7 7 5 9 C2.375 9.125 2.375 9.125 0 9 C0 6.03 0 3.06 0 0 Z " fill="#FBFBF7" transform="translate(240,167)"/>
<path d="M0 0 C1.98 0 3.96 0 6 0 C6.91058531 3.07322544 7.08886184 5.80097361 7 9 C6.34 9 5.68 9 5 9 C4.67 8.01 4.34 7.02 4 6 C3.34 5.67 2.68 5.34 2 5 C2 6.32 2 7.64 2 9 C1.34 9 0.68 9 0 9 C0 6.03 0 3.06 0 0 Z " fill="#966D98" transform="translate(114,85)"/>
<path d="M0 0 C0.66 0 1.32 0 2 0 C1.67 2.64 1.34 5.28 1 8 C-1.31 8 -3.62 8 -6 8 C-5.04956626 6.66102417 -4.08940853 5.32894573 -3.125 4 C-2.59132813 3.2575 -2.05765625 2.515 -1.5078125 1.75 C-1.01023437 1.1725 -0.51265625 0.595 0 0 Z " fill="#835D93" transform="translate(282,182)"/>
<path d="M0 0 C0.33 0 0.66 0 1 0 C1.103125 0.78375 1.20625 1.5675 1.3125 2.375 C1.77595022 5.33045181 1.77595022 5.33045181 5 7 C1.7 7 -1.6 7 -5 7 C-4.01 6.01 -3.02 5.02 -2 4 C-0.82425289 1.90010348 -0.82425289 1.90010348 0 0 Z " fill="#804F84" transform="translate(208,183)"/>
<path d="M0 0 C1.5 1.25 1.5 1.25 3 3 C3 4.32 3 5.64 3 7 C1.35 7 -0.3 7 -2 7 C-1.34 4.69 -0.68 2.38 0 0 Z " fill="#E0E0E8" transform="translate(214,172)"/>
<path d="M0 0 C2.35953094 2.35953094 2.49141413 3.77895617 3 7 C1.35 7 -0.3 7 -2 7 C-1.125 2.25 -1.125 2.25 0 0 Z " fill="#E9E1E2" transform="translate(140,172)"/>
<path d="M0 0 C0.66 0.99 1.32 1.98 2 3 C1.125 6.6875 1.125 6.6875 0 10 C-0.99 10 -1.98 10 -3 10 C-2.01 6.7 -1.02 3.4 0 0 Z " fill="#946493" transform="translate(138,169)"/>
</svg>
